PathFileType	4	(X/Y/Z)	Patient4_TMGait_0pt4_03_right_36.trc.trc
DataRate	CameraRate	NumFrames	NumMarkers	Units	OrigDataRate	OrigDataStartFrame	OrigNumFrames
72.916666666667	72.916666666667	6	33	mm	72.916666666667	1	       141
Frame#	Time	Sacral			L.Shoulder			Chest			R.Shoulder			Neck			R.ASIS			L.ASIS			R.Thigh.Superior			R.Thigh.Lateral			R.Thigh.Inferior			R.Patella			L.Thigh.Superior			L.Thigh.Lateral			L.Thigh.Inferior			L.Patella			L.Shank.Superior			L.Shank.Lateral			L.Shank.Inferior			R.Shank.Superior			R.Shank.Lateral			R.Shank.Inferior			R.Heel			R.Midfoot.Superior			R.Midfoot.Lateral			R.Toe			L.Heel			L.Midfoot.Lateral			L.Midfoot.Superior			L.Toe			L.Elbow			L.Wrist			R.Elbow			R.Wrist			
		X1	Y1	Z1	X2	Y2	Z2	X3	Y3	Z3	X4	Y4	Z4	X5	Y5	Z5	X6	Y6	Z6	X7	Y7	Z7	X8	Y8	Z8	X9	Y9	Z9	X10	Y10	Z10	X11	Y11	Z11	X12	Y12	Z12	X13	Y13	Z13	X14	Y14	Z14	X15	Y15	Z15	X16	Y16	Z16	X17	Y17	Z17	X18	Y18	Z18	X19	Y19	Z19	X20	Y20	Z20	X21	Y21	Z21	X22	Y22	Z22	X23	Y23	Z23	X24	Y24	Z24	X25	Y25	Z25	X26	Y26	Z26	X27	Y27	Z27	X28	Y28	Z28	X29	Y29	Z29	X30	Y30	Z30	X31	Y31	Z31	X32	Y32	Z32	X33	Y33	Z33	

1	46.990000000000	858.498557392839	1007.094738170684	428.530828068716	1026.611842111784	1431.852138813681	219.318116086422	1138.871281008884	1370.728072010268	377.255618078900	1062.787674079509	1448.462522298778	553.401844650860	1021.926911052054	1498.535570011165	372.887585153977	1096.489046287905	949.309573410435	528.966856809878	1063.841331409794	965.149998601161	257.383582582682	1173.452653949237	772.504675332837	502.594251846542	1131.950571933124	653.340202036018	582.470906593640	1219.394056419998	610.566579351117	503.841016177204	1235.097893211666	498.821696471969	528.133618600804	1116.460879116995	754.616717493664	277.105818121460	1022.599384739314	637.359185608155	229.459895418621	1114.682915070067	561.430888388831	282.432285055091	1116.442106653441	492.660554717562	292.851084370286	1090.130480053436	420.198950806650	288.746877698131	997.040869740844	304.374565979340	246.067089166538	1055.779500072323	194.509937155113	315.242588380645	1158.446704429627	424.882598609752	540.122333475916	1040.087338287669	389.701127069700	609.913680966145	1018.492872750137	280.600144083418	563.857183462992	814.813825639120	226.703177689472	552.170090685904	981.672976431643	157.712070275797	577.384053231080	875.606611163429	162.750360696092	620.838152383911	1043.987097060844	42.849658460780	600.191045299930	933.493851128323	38.905233054728	371.344684402145	1001.340349088271	35.146587965567	285.302648114338	1086.792540787596	96.534577713214	306.275030792312	1213.218332984136	43.078419638397	269.556270704465	1035.217153999324	1086.049438354369	83.425365535660	1198.627772484440	881.291108548161	56.980831294853	1010.946300359561	1110.223536491277	689.905548098512	1073.255058058728	855.250787696560	693.232415939539	
2	47.003714285714	857.420703505642	1007.935061417040	426.284773572641	1028.831048511620	1432.161791132818	217.885266790909	1138.876066197623	1371.127750881498	377.315098362956	1060.770231898427	1449.377485336589	552.289639793540	1022.282331304722	1499.064949011578	371.314584846046	1094.401232900256	950.489230620782	529.096378742662	1064.275463513548	965.486853421939	257.311707836803	1173.308042766935	775.944430105029	501.984329159051	1134.444719619005	656.427280830063	582.311038607577	1221.716556039738	614.615957948458	503.060789328346	1239.934842952146	503.969508185296	527.662263878215	1114.642422902617	753.941921492610	278.205462826531	1019.969777567051	637.555419063032	229.338243220516	1110.631131800574	560.826257733936	283.267347406359	1111.569613664059	492.204457526901	293.684545606948	1085.176332867093	420.007497961409	289.175524203371	991.987651810041	304.396847515087	246.100760497127	1050.265441539895	194.417492266773	315.427284273072	1165.873697297553	427.895283584551	540.020651428563	1049.551174111092	387.959867589841	610.112154915030	1032.461536354423	278.083683849040	564.183537367811	831.514079898278	215.730887584520	553.126630704961	1001.313254758304	154.845398855495	579.087107380256	895.092521289820	154.612684632655	621.688983595233	1067.929621381683	42.106754153126	600.525495644524	927.577744503211	38.890289707176	371.300797078883	995.486730593621	35.125698554574	285.259967633064	1080.925003923857	96.498899444894	306.287909138068	1207.372948531318	43.071097674743	269.527481064168	1041.149321813276	1087.314884130740	80.684375840410	1207.671394596078	885.072074637744	54.939931344362	998.828343110509	1113.597188286488	688.130148374836	1052.890334424963	857.213609074061	692.623643096456	
3	47.017428571429	856.349421950824	1008.754471010894	424.061738721662	1031.069294238210	1432.439288139568	216.498529625082	1138.887486972268	1371.500041880667	377.417189487537	1058.761115323549	1450.272769077689	551.221012648086	1022.652872505714	1499.567857017600	369.776402160663	1092.316875677632	951.624203570468	529.264476567501	1064.752727548733	965.840205710571	257.261921330767	1173.072137641393	779.235193583595	501.460080822704	1136.722981825390	659.387310019286	582.223919985750	1223.773156439607	618.453140751374	502.364229340123	1244.410773570674	508.981607141322	527.286609453868	1112.806690530128	753.268200461847	279.340728108330	1017.334239266648	637.747528692395	229.205174566649	1106.564237755415	560.223281162285	284.091849377020	1106.680153935810	491.754057447283	294.501152355535	1080.217760377764	419.815597410308	289.593630948278	986.943762726066	304.411175454779	246.122790623115	1044.763080830527	194.322798674711	315.607246923059	1173.079554515420	430.780912439191	540.010223770914	1058.950660786470	385.953782629595	610.413651045355	1046.557775216065	275.355715968606	564.610409459077	848.604143461026	204.275956551498	554.173971274688	1021.247907195351	151.733851436606	580.784975831531	915.000292679859	146.151816883120	622.641228337166	1092.324257912398	41.388892699903	600.985181818332	921.690868510958	38.872302762107	371.259934672903	989.656441444948	35.104570003694	285.218941654144	1075.082505723050	96.463423370072	306.304632314552	1201.552400277052	43.062967031531	269.502254089806	1046.973134692667	1088.541213171881	78.011359262563	1216.594166973063	888.815928243808	53.003905824339	986.904236332679	1116.960313762485	686.364729089522	1032.875637302074	859.229874753691	692.000082095344	
4	47.031142857143	855.302699436527	1009.527058268654	421.901095617475	1033.324913869157	1432.655071192957	215.215517460896	1138.916329117738	1371.813248610692	377.600945909405	1056.793572486620	1451.115412853911	550.243257208990	1023.055176449423	1500.015339618143	368.326601734337	1090.256475030976	952.660784850165	529.503562748267	1065.286969393936	966.197361437729	257.257961551276	1172.633336698436	782.185743126830	501.105984619043	1138.530563078466	662.072609818057	582.292041709118	1225.275824260392	621.843467397074	501.842221079831	1248.145314135181	513.687017320616	527.085292453084	1110.952697171353	752.595067969863	280.524922414394	1014.709705715887	637.927995650535	229.056831977041	1102.501319991319	559.623961113594	284.894537555869	1101.797798302953	491.313028660934	295.283945983090	1075.286170448725	419.621102116242	289.992478921607	981.946181224300	304.411242080985	246.125002737638	1039.307763852033	194.222960743543	315.778610935054	1179.796706358010	433.429278997261	540.167487976679	1068.180660941952	383.512380948006	610.907528254017	1060.797027822217	272.340685183371	565.206175230837	866.373578330811	192.135123267089	555.362768576222	1041.617832425523	148.321145147138	582.452158313091	935.603192429781	137.278976254308	623.746117217459	1117.378114749137	40.862908853145	601.636049053654	915.877487875181	38.850184977544	371.224308052458	983.890635344279	35.082993494145	285.180838248318	1069.308355304278	96.428323747084	306.327980631346	1195.798791069011	43.052388424300	269.483328941022	1052.560267491579	1089.679296704032	75.502427026128	1225.236382914750	892.461614637517	51.297289089116	975.433881991105	1120.268400911545	684.640462229550	1013.665868067258	861.314927800068	691.369707997915	
5	47.044857142857	854.296211679228	1010.231703558230	419.834782562070	1035.597850964532	1432.784384824108	214.085549439424	1138.974265433056	1372.038345669657	377.899422414264	1054.900400146350	1451.874464878031	549.395266971059	1023.507439573009	1500.382161497096	367.013060704529	1088.235020127979	953.550689564052	529.838584709561	1065.882793081845	966.537806175462	257.316573180248	1171.881597852758	784.618843492781	500.993190958162	1139.624586623681	664.349132636467	582.586436936199	1225.961086186641	624.578919294835	501.577404458934	1250.808585127108	517.937471349635	527.117176650035	1109.078314549972	751.918257384960	281.761690704066	1012.108086405208	638.088640084713	228.892132840343	1098.454922086181	559.027242983530	285.667334330216	1096.938451544234	490.881449983407	296.021437513593	1070.400915795098	419.420093746316	290.366553365653	977.015264010007	304.391906034833	246.101441908379	1033.914541703623	194.114086995050	315.939377583437	1185.797786306401	435.761551621837	540.552254925902	1077.181052573158	380.513087746572	611.671514370966	1075.223167612870	269.019076071014	566.021062437015	885.143726747590	179.189523670491	556.727785766054	1062.600163178620	144.638608736736	584.082179187388	957.199080751821	127.982137515315	625.037368335894	1143.303043791057	40.751722889842	602.520648344315	910.155369839677	38.823135385218	371.194683941899	978.204348767075	35.060642309876	285.146562813534	1063.618897072626	96.393201846598	306.360219936641	1190.127706936359	43.037145745053	269.472849388909	1057.818107334731	1090.685722777693	73.241382327224	1233.484137640550	895.961995921072	49.927136657164	964.614264868156	1123.481406947038	682.985343764485	995.608719631250	863.473161561061	690.749384079607	
6	47.058571428571	853.343706462230	1010.853009586673	417.888224862673	1037.884398422722	1432.810203795273	213.147415373826	1139.072734929571	1372.151645900153	378.335878602868	1053.114898478374	1452.522445884445	548.705567252751	1024.026609717545	1500.648918423202	365.876744857560	1086.264512999270	954.254277941067	530.283465652590	1066.532395216672	966.832999933455	257.446642375088	1170.720949020963	786.384974704806	501.172152827268	1139.797446852972	666.106678124149	583.158564851373	1225.618020323257	626.496552038024	501.635491123624	1252.153105986444	521.615539140454	527.413762608192	1107.184722054534	751.231034279056	283.042121802879	1009.540605965993	638.221146235936	228.714206089288	1094.438048552818	558.429950748914	286.405569617836	1092.118094686248	490.456209266408	296.708034152206	1065.576522543415	419.207312941355	290.714110220116	972.161440965952	304.350144568447	246.049528429282	1028.585890759566	193.991688042522	316.089600016509	1190.908177460065	437.736325163492	541.199486358252	1085.923357587119	376.906496009799	612.759565350506	1089.868790016854	265.443902899901	567.077299496566	905.187148916074	165.459407839112	558.277117737655	1084.336386316649	140.816010799862	585.678910271225	980.024532343088	118.357817451676	626.520140222878	1170.227020205005	41.315124050820	603.646923983360	904.523370873768	38.790912616228	371.170314865043	972.594300534135	35.037189252067	285.116609396322	1058.011307516647	96.357175542099	306.402716088615	1184.535986575261	43.014607514707	269.472195363441	1062.689882548184	1091.525323394635	71.296985478730	1241.265868185440	899.281905206280	48.976271837942	954.580796946421	1126.560594029519	681.425625278164	978.944779241558	865.691409291030	690.165706348691	
